<svg width="19" height="18" viewBox="0 0 19 18" fill="none" xmlns="http://www.w3.org/2000/svg">
<g clip-path="url(#clip0_13_206)">
<path fill-rule="evenodd" clip-rule="evenodd" d="M2.61035 8C2.61035 4.68629 5.29664 2 8.61035 2C11.9241 2 14.6104 4.68629 14.6104 8C14.6104 11.3137 11.9241 14 8.61035 14C5.29664 14 2.61035 11.3137 2.61035 8ZM8.61035 0C4.19207 0 0.610352 3.58172 0.610352 8C0.610352 12.4183 4.19207 16 8.61035 16C10.4591 16 12.1614 15.3729 13.516 14.3199L16.9033 17.7071C17.2938 18.0976 17.927 18.0976 18.3175 17.7071C18.708 17.3166 18.708 16.6834 18.3175 16.2929L14.9303 12.9056C15.9833 11.551 16.6104 9.84871 16.6104 8C16.6104 3.58172 13.0287 0 8.61035 0Z" fill="#222222"/>
</g>
<defs>
<clipPath id="clip0_13_206">
<rect width="18" height="18" fill="white" transform="translate(0.610352)"/>
</clipPath>
</defs>
</svg>
