<svg width="33" height="33" viewBox="0 0 33 33" fill="none" xmlns="http://www.w3.org/2000/svg">
<rect x="1.59131" y="2" width="29.1892" height="29.2575" rx="14.5946" fill="#2BA3DF"/>
<path d="M7.49523 16.2099C7.49523 16.2099 14.0052 13.4679 16.2642 12.5029C17.1292 12.1169 20.0642 10.8809 20.0642 10.8809C20.0642 10.8809 21.4192 10.3399 21.3062 11.6529C21.2692 12.1929 20.9682 14.0859 20.6662 16.1329C20.2152 19.0299 19.7262 22.1959 19.7262 22.1959C19.7262 22.1959 19.6512 23.0849 19.0112 23.2389C18.3712 23.3939 17.3172 22.6989 17.1292 22.5439C16.9792 22.4279 14.3072 20.6899 13.3292 19.8409C13.0652 19.6089 12.7642 19.1459 13.3662 18.6049C14.7076 17.3427 16.0248 16.0552 17.3172 14.7429C17.7692 14.2789 18.2212 13.1979 16.3392 14.5109C13.6672 16.4029 11.0332 18.1799 11.0332 18.1799C11.0332 18.1799 10.4312 18.5659 9.30223 18.2189C8.17223 17.8709 6.85623 17.4079 6.85623 17.4079C6.85623 17.4079 5.95223 16.8279 7.49523 16.2099Z" fill="white"/>
</svg>
