<svg width="24" height="24" viewBox="0 0 24 24" fill="none" xmlns="http://www.w3.org/2000/svg">
<g clip-path="url(#clip0_3_3298)">
<g clip-path="url(#clip1_3_3298)">
<g clip-path="url(#clip2_3_3298)">
<path fill-rule="evenodd" clip-rule="evenodd" d="M24 12C24 18.6274 18.6274 24 12 24C5.37258 24 0 18.6274 0 12C0 5.37258 5.37258 0 12 0C18.6274 0 24 5.37258 24 12ZM12.4296 8.85908C11.2624 9.34455 8.92968 10.3493 5.43143 11.8735C4.86337 12.0994 4.5658 12.3204 4.53871 12.5365C4.49293 12.9016 4.95025 13.0454 5.57301 13.2413C5.65772 13.2679 5.74549 13.2955 5.83548 13.3248C6.44818 13.5239 7.27237 13.7569 7.70083 13.7662C8.08948 13.7746 8.52327 13.6143 9.00218 13.2855C12.2707 11.0792 13.9579 9.96396 14.0638 9.93992C14.1386 9.92296 14.2421 9.90163 14.3123 9.964C14.3825 10.0264 14.3756 10.1445 14.3681 10.1762C14.3228 10.3693 12.5277 12.0382 11.5987 12.9019C11.309 13.1712 11.1036 13.3622 11.0616 13.4058C10.9675 13.5035 10.8717 13.5959 10.7795 13.6848C10.2103 14.2335 9.78345 14.645 10.8032 15.3169C11.2932 15.6399 11.6853 15.9069 12.0765 16.1733C12.5037 16.4642 12.9298 16.7544 13.4812 17.1158C13.6216 17.2079 13.7558 17.3035 13.8864 17.3967C14.3836 17.7511 14.8303 18.0696 15.3821 18.0188C15.7028 17.9893 16.034 17.6878 16.2022 16.7885C16.5998 14.6633 17.3812 10.0586 17.5618 8.16112C17.5776 7.99488 17.5577 7.78212 17.5417 7.68872C17.5257 7.59533 17.4923 7.46226 17.3709 7.36375C17.2271 7.24709 17.0052 7.22249 16.9059 7.22423C16.4546 7.23218 15.7621 7.47297 12.4296 8.85908Z" fill="#ABB5B5"/>
</g>
</g>
</g>
<defs>
<clipPath id="clip0_3_3298">
<rect width="24" height="24" fill="white"/>
</clipPath>
<clipPath id="clip1_3_3298">
<rect width="24" height="24" fill="white"/>
</clipPath>
<clipPath id="clip2_3_3298">
<rect width="24" height="24" fill="white"/>
</clipPath>
</defs>
</svg>
