<svg width="183" height="45" viewBox="0 0 183 45" fill="none" xmlns="http://www.w3.org/2000/svg">
<g clip-path="url(#clip0_2_419)">
<path d="M38.1775 42.4659H30.2204L11.6398 10.5051H19.6039L38.1775 42.4659ZM41.7697 28.7654H33.8056L23.1334 10.5051H31.0906L41.7697 28.7654Z" fill="#0186BB"/>
<path d="M9.94104 6.85023H32.9701L36.9521 0C36.9521 0 22.0125 0.083536 9.14741 0.083536C0.647281 0.083536 -1.71271 7.61601 1.18332 12.872L18.469 42.4659H26.454L8.00571 10.5051C7.01716 8.59063 7.79686 6.85023 9.94104 6.85023Z" fill="#2F5991"/>
<path d="M25.2359 14.0973L29.9698 22.1936C32.9586 22.7599 35.9359 23.3168 38.9015 23.8644L33.6246 14.8143L25.2359 14.0973ZM17.0003 19.7292L25.9529 21.4348L21.4975 13.777L13.1087 13.0322L17.0003 19.7292Z" fill="#80C3DD"/>
<path d="M1.17651 12.872L3.73142 17.237C6.76669 17.7939 9.81356 18.3624 12.872 18.9426L9.26591 12.6771L0.696159 11.9253C0.83856 12.2495 0.998928 12.5656 1.17651 12.872Z" fill="#6E8BB2"/>
<path d="M47.2485 28.7793L54.0918 7.19831H56.8764L59.2086 28.7793H56.4239L56.0062 23.3005H51.5577L49.9635 28.7793H47.2485ZM52.2121 21.226H55.9087L55.0942 11.2987L52.2121 21.226ZM61.1926 28.7793L62.8007 13.3733H67.0264C67.6797 13.3568 68.3306 13.4582 68.9478 13.6726C69.4161 13.832 69.8291 14.1218 70.1383 14.508C70.3992 14.8504 70.5843 15.2443 70.6813 15.6636C70.7532 15.9717 70.7882 16.2872 70.7857 16.6035C70.7936 16.7588 70.7936 16.9145 70.7857 17.0699C70.6279 18.8474 69.8505 19.9497 68.4536 20.3767C69.7948 20.6644 70.4655 21.6878 70.4655 23.4467C70.4654 23.7282 70.4492 24.0095 70.4167 24.2891C70.3633 25.5152 69.9028 26.6885 69.108 27.6237C68.384 28.3895 67.2237 28.7724 65.6272 28.7724L61.1926 28.7793ZM64.0817 26.6908H65.1816C65.8014 26.7223 66.4118 26.5295 66.9011 26.1478C67.4034 25.6201 67.6849 24.9202 67.6878 24.1916C67.6878 23.8946 67.7017 23.63 67.7296 23.398C67.7503 23.1902 67.7338 22.9804 67.6808 22.7784C67.6321 22.6044 67.5834 22.4443 67.5416 22.3189C67.5006 22.1906 67.4232 22.077 67.3188 21.9917C67.2275 21.9139 67.1297 21.844 67.0264 21.7829C66.9174 21.7237 66.8001 21.6815 66.6784 21.6576C66.5475 21.6301 66.4149 21.6115 66.2816 21.6019H64.6386L64.0817 26.6908ZM64.8196 19.5969H66.2746C66.5299 19.6088 66.785 19.5686 67.0244 19.4789C67.2637 19.3891 67.4823 19.2516 67.6669 19.0748C68.0652 18.5988 68.2931 18.0034 68.3143 17.3832V17.0351C68.3304 16.8229 68.3029 16.6097 68.2334 16.4085C68.164 16.2074 68.0541 16.0226 67.9106 15.8655C67.4894 15.5198 66.9498 15.3525 66.4069 15.3991H65.2512L64.8196 19.5969ZM73.8836 28.7793L75.276 15.4409H72.4008L72.6236 13.3524H81.2281L81.0054 15.4409H78.0606L76.6683 28.7793H73.8836ZM87.3892 28.6122C86.7035 28.8867 85.9694 29.0193 85.2311 29.0021C84.5142 29.0251 83.8011 28.8896 83.1426 28.6053C82.6152 28.3686 82.1782 27.9683 81.8965 27.4636C81.6052 26.9044 81.4232 26.2948 81.3604 25.6675C81.326 25.3484 81.3098 25.0277 81.3117 24.7068C81.3137 24.2413 81.3439 23.7763 81.4022 23.3145L81.8547 18.8799C81.9335 17.353 82.4401 15.8791 83.3166 14.6264C83.757 14.1218 84.3093 13.7275 84.9295 13.4748C85.5497 13.2221 86.2204 13.1182 86.8879 13.1714C87.6055 13.1489 88.319 13.2869 88.9764 13.5752C89.5062 13.8169 89.9469 14.2186 90.2365 14.7238C90.5321 15.2817 90.7165 15.8917 90.7795 16.5199C90.8223 16.8476 90.8386 17.1782 90.8282 17.5085C90.827 17.974 90.7968 18.439 90.7377 18.9008L90.2713 23.3353C90.1974 24.1411 90.0387 24.9368 89.7979 25.7092C89.5954 26.3478 89.2871 26.9479 88.8859 27.4845C88.4942 27.9848 87.9781 28.3736 87.3892 28.6122ZM84.8482 26.8579C85.0413 26.932 85.2471 26.9675 85.4538 26.9623C85.6679 26.9652 85.8805 26.9274 86.0804 26.851C86.2483 26.7881 86.4074 26.7039 86.5538 26.6003C86.7012 26.4809 86.8181 26.3282 86.8949 26.1548C86.9924 25.9552 87.0713 25.7789 87.1316 25.6257C87.2104 25.3998 87.2664 25.1666 87.2987 24.9295C87.3497 24.6325 87.3868 24.4005 87.4101 24.2334C87.4333 24.0663 87.4611 23.8111 87.4936 23.4676L88.0018 18.678C88.0343 18.3485 88.0575 18.0932 88.0714 17.9122C88.0853 17.7312 88.0853 17.4992 88.0714 17.2161C88.0932 16.9845 88.0932 16.7515 88.0714 16.5199C88.0389 16.3386 87.9948 16.1595 87.9391 15.9839C87.8972 15.8135 87.8107 15.6573 87.6885 15.5314C87.409 15.2836 87.0455 15.1517 86.6721 15.1624C86.4343 15.1607 86.1983 15.2032 85.976 15.2877C85.7684 15.3688 85.5876 15.5062 85.4538 15.6845C85.3244 15.8551 85.2102 16.0368 85.1127 16.2275C85.0024 16.4623 84.9229 16.7103 84.876 16.9655C84.8111 17.2764 84.7646 17.5433 84.7368 17.7661C84.709 17.9888 84.6765 18.2905 84.6393 18.6711L84.1311 23.4606C84.0987 23.7994 84.0754 24.057 84.0615 24.2334C84.0476 24.4097 84.0476 24.6418 84.0615 24.9295C84.0392 25.1611 84.0392 25.3942 84.0615 25.6257C84.094 25.8071 84.1382 25.9861 84.1938 26.1618C84.2365 26.3298 84.323 26.4835 84.4444 26.6073C84.5636 26.7134 84.7002 26.7981 84.8482 26.8579ZM90.7238 32.7196L91.3573 26.7187H92.3319C92.6854 26.4544 93.016 26.161 93.3205 25.8415C93.686 25.4134 94.0035 24.9465 94.2673 24.4492C94.6641 23.7372 94.9861 22.986 95.228 22.2076C95.5064 21.335 95.8104 20.1748 96.1399 18.7267C96.4694 17.2787 96.785 15.5894 97.0867 13.6587L98.0961 7.21919H107.028L104.995 26.7117H107.028L106.394 32.7126H104.153L104.32 28.8072H93.6268L92.9793 32.7126L90.7238 32.7196ZM95.0539 26.7187H102.092L103.909 9.39818H100.359L99.6207 14.3688C99.4629 15.4362 99.3005 16.4178 99.1334 17.3135C98.9663 18.2093 98.8085 18.9983 98.66 19.6805C98.5115 20.3627 98.3444 20.9962 98.1588 21.581C97.9731 22.1658 97.813 22.6531 97.6784 23.043C97.5417 23.4384 97.3693 23.8205 97.1633 24.1847C96.9544 24.5513 96.7874 24.8344 96.662 25.034C96.5078 25.2839 96.3281 25.5171 96.126 25.7301L95.6039 26.2592C95.4971 26.3288 95.3138 26.4727 95.0539 26.6908V26.7187ZM108.852 28.7793L110.46 13.3733H112.778L111.692 23.8853L117.463 13.3733H119.628L118.02 28.7793H115.737L116.851 18.1907L111.08 28.7793H108.852ZM123.603 29.0021C123.193 29.0085 122.788 28.9134 122.424 28.7251C122.059 28.5368 121.747 28.2613 121.515 27.923C121.071 27.3185 120.839 26.5845 120.854 25.8346C120.845 25.6908 120.845 25.5467 120.854 25.4029C120.899 24.9074 121.012 24.4204 121.188 23.9549C121.337 23.5645 121.509 23.1833 121.703 22.8132C121.925 22.4355 122.218 22.1045 122.566 21.8386C122.97 21.5044 123.286 21.2515 123.513 21.0798C123.904 20.8098 124.318 20.5767 124.752 20.3836C125.351 20.0959 125.773 19.9009 126.019 19.7988L127.502 19.2001L127.593 19.1584L127.711 18.0515C127.753 17.6245 127.774 17.2509 127.774 16.9307C127.789 16.5611 127.741 16.1917 127.634 15.8377C127.472 15.4061 127.075 15.1926 126.444 15.1972C125.33 15.1972 124.699 15.9398 124.55 17.4249L124.46 18.1768L121.752 18.0724C121.752 18.0306 121.766 17.9424 121.793 17.8078L121.835 17.5154C121.948 16.2385 122.525 15.0472 123.457 14.1669C124.425 13.4278 125.625 13.0576 126.841 13.1227C128.312 13.1227 129.328 13.5264 129.89 14.334C130.364 15.1164 130.59 16.0242 130.537 16.9376C130.536 17.3028 130.515 17.6677 130.475 18.0306L129.737 25.1245C129.641 26.0496 129.595 26.9791 129.597 27.9091V28.7445H127.098C127.01 27.8673 126.966 27.1132 126.966 26.482C126.682 27.1702 126.232 27.7777 125.657 28.2502C125.084 28.7378 124.356 29.0045 123.603 29.0021ZM124.94 26.6073C125.363 26.5919 125.769 26.4377 126.096 26.1687C126.439 25.9223 126.74 25.6213 126.987 25.2776L127.453 20.8779L127.21 21.0102L126.186 21.5601C125.963 21.6854 125.676 21.8711 125.323 22.1171C125.031 22.3158 124.765 22.5496 124.529 22.8132C124.33 23.0537 124.162 23.318 124.028 23.5999C123.873 23.9163 123.776 24.2583 123.743 24.6093C123.734 24.7484 123.734 24.8879 123.743 25.027C123.725 25.3977 123.809 25.7661 123.986 26.0921C124.083 26.2555 124.222 26.3896 124.389 26.4803C124.555 26.571 124.744 26.6149 124.933 26.6073H124.94ZM132.118 28.7793L133.726 13.3733H139.845L139.636 15.3504H136.267L134.874 28.7793H132.118ZM139.803 28.7793L141.411 13.3733H144.147L143.486 19.8685H147.231L147.927 13.3733H150.677L149.069 28.7793H146.319L147.015 21.8943H143.256L142.56 28.7793H139.803ZM158.196 28.6122C157.51 28.8867 156.776 29.0193 156.038 29.0021C155.321 29.0251 154.608 28.8896 153.949 28.6053C153.422 28.3686 152.985 27.9683 152.703 27.4636C152.412 26.9044 152.23 26.2948 152.167 25.6675C152.13 25.3486 152.112 25.0278 152.111 24.7068C152.114 24.2413 152.144 23.7763 152.202 23.3145L152.654 18.8799C152.731 17.3537 153.235 15.8798 154.109 14.6264C154.55 14.1218 155.102 13.7275 155.722 13.4748C156.342 13.2221 157.013 13.1182 157.681 13.1714C158.398 13.1489 159.112 13.2869 159.769 13.5752C160.299 13.8169 160.74 14.2186 161.029 14.7238C161.325 15.2817 161.509 15.8917 161.572 16.5199C161.617 16.8474 161.636 17.178 161.628 17.5085C161.627 17.974 161.596 18.439 161.537 18.9008L161.071 23.3353C160.997 24.1411 160.838 24.9367 160.598 25.7092C160.395 26.3476 160.086 26.9476 159.686 27.4845C159.296 27.9836 158.782 28.3723 158.196 28.6122ZM155.655 26.8579C155.848 26.932 156.054 26.9675 156.26 26.9623C156.474 26.9652 156.687 26.9274 156.887 26.851C157.055 26.7881 157.214 26.7039 157.36 26.6003C157.508 26.4808 157.624 26.3281 157.701 26.1548C157.799 25.9529 157.882 25.7789 157.938 25.6257C158.016 25.3996 158.072 25.1665 158.105 24.9295C158.156 24.6325 158.193 24.4005 158.217 24.2334C158.24 24.0663 158.268 23.8111 158.3 23.4676L158.808 18.678C158.841 18.3485 158.864 18.0932 158.878 17.9122C158.892 17.7312 158.892 17.4992 158.878 17.2161C158.9 16.9845 158.9 16.7515 158.878 16.5199C158.837 16.3476 158.786 16.1779 158.725 16.0117C158.683 15.8413 158.596 15.6851 158.474 15.5592C158.195 15.3115 157.831 15.1795 157.458 15.1903C157.22 15.1887 156.984 15.2312 156.762 15.3156C156.557 15.3978 156.378 15.5351 156.247 15.7124C156.117 15.883 156.003 16.0647 155.905 16.2554C155.797 16.4905 155.72 16.7385 155.676 16.9933C155.611 17.3043 155.564 17.5711 155.536 17.7939C155.509 18.0167 155.476 18.3183 155.439 18.6989L154.931 23.4885C154.898 23.8273 154.875 24.0849 154.861 24.2612C154.847 24.4376 154.847 24.6697 154.861 24.9574C154.839 25.1889 154.839 25.422 154.861 25.6536C154.894 25.8348 154.938 26.0139 154.993 26.1896C155.036 26.3575 155.123 26.5112 155.244 26.6351C155.367 26.732 155.506 26.8073 155.655 26.8579ZM167.232 29.0021C166.459 29.029 165.69 28.8715 164.99 28.5426C164.451 28.2835 164.018 27.8457 163.765 27.3035C163.507 26.6914 163.358 26.0387 163.326 25.3751V24.6302C163.331 24.0385 163.375 23.4477 163.459 22.8619L163.835 19.2837C163.921 18.4146 164.075 17.5534 164.294 16.7079C164.475 16.0321 164.764 15.3902 165.15 14.8074C165.514 14.2568 166.033 13.8258 166.64 13.5682C167.365 13.2842 168.139 13.1492 168.917 13.1714C169.606 13.1493 170.293 13.258 170.942 13.4916C171.424 13.6697 171.836 13.9964 172.119 14.4245C172.398 14.8885 172.567 15.4099 172.613 15.9491C172.649 16.2283 172.663 16.51 172.655 16.7914C172.654 17.2079 172.628 17.624 172.578 18.0376L172.474 18.9356H169.989L170.093 18.0236C170.133 17.677 170.154 17.3284 170.156 16.9794C170.176 16.5903 170.114 16.2014 169.975 15.8377C169.86 15.6212 169.682 15.445 169.464 15.333C169.246 15.2209 168.999 15.1784 168.757 15.2111C168.465 15.1828 168.172 15.2378 167.911 15.3697C167.649 15.5015 167.431 15.7049 167.281 15.956C166.912 16.8404 166.702 17.7832 166.661 18.7407L166.153 23.5581C166.097 24.0342 166.067 24.5129 166.062 24.9922C166.041 25.42 166.103 25.8478 166.243 26.2523C166.357 26.4913 166.543 26.6878 166.776 26.8131C167.009 26.9384 167.276 26.9858 167.538 26.9484C167.791 26.9537 168.043 26.9063 168.276 26.8092C168.468 26.7306 168.642 26.6119 168.784 26.4611C168.934 26.2854 169.047 26.0819 169.119 25.8624C169.206 25.6178 169.274 25.3663 169.32 25.1106C169.362 24.8646 169.406 24.5513 169.453 24.1707L169.585 22.9733H172.077L171.973 24.0037C171.905 24.7122 171.765 25.412 171.555 26.0921C171.379 26.6522 171.103 27.1757 170.741 27.6376C170.376 28.0922 169.895 28.4388 169.348 28.6401C168.672 28.8922 167.954 29.015 167.232 29.0021ZM175.69 28.7793L177.083 15.4409H174.166L174.388 13.3524H182.993L182.77 15.4409H179.826L178.433 28.7793H175.69Z" fill="#2F5991"/>
<path d="M47.3808 44.0461L47.6383 41.6165C47.895 41.4448 48.1289 41.2413 48.3345 41.0109C48.5594 40.74 48.751 40.4432 48.9053 40.1268C49.117 39.6821 49.2781 39.215 49.3857 38.7344C49.5387 38.0948 49.6503 37.4461 49.7199 36.7921L49.8452 35.8662H52.769L52.1843 41.5469H52.9083L52.6507 44.0252H51.8014L51.871 42.3753H48.4946L48.2231 44.0252L47.3808 44.0461ZM48.7731 41.5678H51.0147L51.5229 36.6947H50.6249L50.5622 37.0149C50.4915 37.6724 50.3845 38.3254 50.242 38.9711C50.1472 39.4243 50.0024 39.8656 49.8104 40.2869C49.6831 40.5635 49.5217 40.8231 49.33 41.0596C49.1764 41.2516 48.9958 41.4204 48.794 41.5609L48.7731 41.5678ZM53.8063 42.3962L54.5025 35.8802H55.4771L55.0176 40.3286L57.4612 35.8802H58.3801L57.6839 42.3962H56.7163L57.1897 37.9199L54.7461 42.3962H53.8063ZM60.1623 42.4659C59.9885 42.4678 59.817 42.4268 59.6628 42.3467C59.5086 42.2666 59.3765 42.1497 59.2782 42.0064C59.0934 41.7542 58.9957 41.4488 58.9997 41.1362C58.9963 41.0759 58.9963 41.0155 58.9997 40.9552C59.0325 40.7559 59.091 40.5616 59.1737 40.3774C59.2362 40.2109 59.3082 40.0482 59.3895 39.89C59.4827 39.7312 59.6056 39.5917 59.7515 39.4793L60.1553 39.1591C60.3199 39.0456 60.4947 38.9478 60.6774 38.8667L61.2135 38.6161L61.84 38.3655H61.8818L61.9305 37.899C61.9384 37.7413 61.9384 37.5833 61.9305 37.4256C61.9355 37.2701 61.9143 37.1148 61.8679 36.9662C61.7983 36.7805 61.6289 36.69 61.3597 36.6947C60.8956 36.6947 60.6287 37.0079 60.5591 37.6345L60.5173 37.9547L59.3687 37.913V37.6763C59.4245 37.1432 59.6719 36.6485 60.0648 36.2839C60.4747 35.9696 60.9831 35.8117 61.4989 35.8384C61.7389 35.8088 61.9826 35.8398 62.2075 35.9286C62.4325 36.0174 62.6317 36.1611 62.7868 36.3466C62.9862 36.6775 63.0809 37.0609 63.0583 37.4465C63.0667 37.5996 63.0667 37.753 63.0583 37.906L62.745 40.9065C62.7032 41.2996 62.6823 41.6946 62.6824 42.0899V42.445H61.6242C61.5871 42.0737 61.5685 41.7558 61.5685 41.4912C61.4472 41.7817 61.2559 42.0376 61.0116 42.2361C60.7625 42.4064 60.4632 42.4873 60.1623 42.4659ZM60.7262 41.4495C60.904 41.444 61.0752 41.3804 61.2135 41.2685C61.3585 41.1646 61.4855 41.0376 61.5894 40.8925L61.7843 39.0338L61.6799 39.0895L61.2483 39.3262C61.1237 39.3989 61.0029 39.4779 60.8863 39.5628C60.7638 39.6441 60.6516 39.74 60.5521 39.8483C60.4691 39.9507 60.399 40.063 60.3433 40.1824C60.2785 40.3157 60.2384 40.4595 60.2249 40.6071C60.2215 40.6651 60.2215 40.7232 60.2249 40.7811C60.2174 40.9387 60.2535 41.0953 60.3294 41.2337C60.3666 41.3069 60.4234 41.3684 60.4934 41.4114C60.5634 41.4544 60.644 41.4772 60.7262 41.4773V41.4495ZM63.8867 42.3962L64.5829 35.8802H67.1726L67.0821 36.7156H65.655L65.0563 42.3962H63.8867ZM67.2492 42.3962L67.9454 35.8802H69.101L68.8225 38.623H70.4098L70.6952 35.8802H71.8578L71.1616 42.3962H69.999L70.3054 39.4863H68.7111L68.4048 42.3962H67.2492ZM75.1854 42.3197C74.8958 42.4362 74.5856 42.493 74.2735 42.4867C73.9701 42.4959 73.6684 42.4389 73.3894 42.3197C73.1661 42.2203 72.9807 42.0519 72.8603 41.8393C72.7359 41.6034 72.658 41.3458 72.6305 41.0805C72.6228 40.946 72.6228 40.8112 72.6305 40.6767C72.6324 40.4788 72.6464 40.2812 72.6723 40.085L72.8672 38.2053C72.9032 37.5608 73.1177 36.9389 73.4868 36.4092C73.6728 36.1953 73.9063 36.0278 74.1686 35.9202C74.431 35.8126 74.7148 35.7679 74.9975 35.7897C75.3015 35.781 75.6036 35.8405 75.8816 35.9637C76.1076 36.0649 76.2954 36.2356 76.4177 36.451C76.542 36.687 76.62 36.9445 76.6474 37.2098C76.6586 37.3488 76.6586 37.4885 76.6474 37.6275C76.6455 37.8231 76.6316 38.0184 76.6056 38.2123L76.4107 40.0919C76.3787 40.4323 76.3111 40.7683 76.2088 41.0944C76.1221 41.3652 75.9903 41.6194 75.819 41.8463C75.6526 42.0566 75.4343 42.2198 75.1854 42.3197ZM74.1064 41.5748C74.1889 41.6048 74.2763 41.619 74.364 41.6165C74.4545 41.6176 74.5443 41.6011 74.6285 41.5678C74.7001 41.5419 74.7679 41.5068 74.8304 41.4634C74.8933 41.4132 74.9434 41.3488 74.9766 41.2754C75.0184 41.1919 75.0532 41.1153 75.081 41.0526C75.1136 40.96 75.1369 40.8644 75.1506 40.7672C75.1506 40.6419 75.1855 40.5444 75.1994 40.4679C75.2133 40.3913 75.1994 40.2869 75.2342 40.1407L75.45 38.1148V37.4883C75.4587 37.3934 75.4587 37.2978 75.45 37.2029C75.4362 37.1275 75.4176 37.0531 75.3943 36.9801C75.3765 36.9094 75.3405 36.8446 75.2899 36.7921C75.2383 36.7458 75.1795 36.7082 75.1158 36.6808C75.0343 36.6467 74.9466 36.6301 74.8583 36.632C74.7558 36.6314 74.6543 36.6503 74.5589 36.6877C74.4705 36.7216 74.3934 36.7794 74.3361 36.8548C74.2807 36.9269 74.2318 37.0038 74.1899 37.0845C74.1441 37.1843 74.1113 37.2896 74.0925 37.3978C74.0646 37.5277 74.0437 37.6415 74.0298 37.7389C74.0159 37.8364 74.002 37.964 73.9881 38.1218L73.7722 40.1476V40.7672C73.7638 40.8598 73.7638 40.953 73.7722 41.0457C73.7859 41.1211 73.8045 41.1955 73.8279 41.2685C73.8457 41.3391 73.8817 41.4039 73.9324 41.4564C73.9737 41.5061 74.0232 41.5484 74.0786 41.5817L74.1064 41.5748ZM79.0979 42.4659C78.7719 42.478 78.4477 42.4136 78.1511 42.2779C77.9218 42.1697 77.7372 41.9851 77.629 41.7558C77.5189 41.4974 77.4553 41.2217 77.441 40.9413V40.628C77.4426 40.3764 77.4612 40.1252 77.4967 39.8761L77.6568 38.3655C77.6927 37.992 77.7579 37.6219 77.8517 37.2586C77.9284 36.9739 78.0506 36.7035 78.2138 36.458C78.3677 36.2242 78.5884 36.0423 78.8473 35.9359C79.1531 35.8164 79.4798 35.7596 79.808 35.7688C80.0992 35.7587 80.3897 35.8035 80.6642 35.9011C80.8694 35.9764 81.0451 36.1155 81.1655 36.2979C81.2829 36.4927 81.3543 36.7117 81.3743 36.9383C81.3834 37.0565 81.3834 37.1752 81.3743 37.2934C81.3845 37.4696 81.3845 37.6462 81.3743 37.8225L81.3325 38.2053H80.2814L80.3231 37.8225C80.3311 37.6764 80.3311 37.53 80.3231 37.3839C80.3319 37.2179 80.3058 37.0519 80.2465 36.8966C80.1978 36.8053 80.1224 36.731 80.0303 36.6837C79.9383 36.6365 79.834 36.6184 79.7314 36.632C79.608 36.6195 79.4836 36.6423 79.3727 36.6978C79.2617 36.7532 79.1689 36.8391 79.1048 36.9453C78.9462 37.3231 78.8566 37.7263 78.8403 38.1357L78.6245 40.1685C78.5999 40.3695 78.5859 40.5717 78.5827 40.7742C78.5729 40.9562 78.5989 41.1383 78.6593 41.3102C78.7063 41.4129 78.7853 41.4975 78.8844 41.5515C78.9836 41.6055 79.0976 41.6258 79.2093 41.6096C79.3164 41.6129 79.4231 41.594 79.5225 41.5539C79.6039 41.5208 79.6774 41.471 79.7383 41.4077C79.8005 41.334 79.8478 41.2488 79.8776 41.1571C79.9144 41.0529 79.9423 40.9457 79.9611 40.8368C79.9611 40.7301 79.9797 40.5978 80.0168 40.44L80.0725 39.9318H81.1237L81.0819 40.3635C81.0549 40.6657 80.9965 40.9643 80.9079 41.2545C80.8318 41.4917 80.7139 41.7133 80.5598 41.9089C80.4037 42.1005 80.1995 42.247 79.9681 42.3336C79.6884 42.4301 79.3936 42.475 79.0979 42.4659ZM82.7875 42.3962L83.3793 36.7573H82.1471L82.2376 35.8802H85.8855L85.7949 36.7573H84.5488L83.9571 42.3962H82.7875ZM86.0386 42.3962L86.7348 35.8802H87.7164L87.2569 40.3286L89.7004 35.8802H90.6194L89.9232 42.3962H88.9555L89.4289 37.9199L86.9854 42.3962H86.0386ZM91.2528 42.3962L91.949 35.8802H93.1046L92.8262 38.6648H93.1812L94.7058 35.8802H95.9032L94.1907 39.0338L95.2419 42.3962H93.9818L93.0559 39.347H92.7078L92.3806 42.3962H91.2528ZM97.1424 42.4659C96.9686 42.4678 96.7971 42.4268 96.6429 42.3467C96.4887 42.2666 96.3566 42.1497 96.2583 42.0064C96.0735 41.7542 95.9758 41.4488 95.9798 41.1362C95.9764 41.0759 95.9764 41.0155 95.9798 40.9552C96.0007 40.7453 96.0499 40.5393 96.126 40.3426C96.1884 40.1761 96.2605 40.0134 96.3418 39.8552C96.435 39.6964 96.5579 39.5569 96.7038 39.4445L97.1076 39.1243C97.2722 39.0108 97.447 38.9129 97.6297 38.8319L98.1658 38.5813L98.7923 38.3307H98.8341L98.8828 37.8642C98.8907 37.7065 98.8907 37.5485 98.8828 37.3908C98.8877 37.2353 98.8666 37.0799 98.8201 36.9314C98.7505 36.7457 98.5811 36.6552 98.3119 36.6599C97.8478 36.6599 97.581 36.9731 97.5114 37.5997L97.4696 37.9199L96.3209 37.8781V37.6415C96.3768 37.1084 96.6241 36.6137 97.0171 36.2491C97.4269 35.9348 97.9354 35.7769 98.4512 35.8036C98.6912 35.774 98.9348 35.805 99.1598 35.8938C99.3848 35.9826 99.5839 36.1263 99.7391 36.3118C99.9385 36.6426 100.033 37.0261 100.011 37.4117C100.019 37.5648 100.019 37.7181 100.011 37.8712L99.6973 40.8716C99.6554 41.2647 99.6345 41.6598 99.6346 42.0551V42.4102H98.5765C98.5394 42.0389 98.5208 41.721 98.5208 41.4564C98.3994 41.7469 98.2081 42.0028 97.9639 42.2013C97.7268 42.3779 97.4379 42.4709 97.1424 42.4659ZM97.7063 41.4495C97.8841 41.444 98.0553 41.3804 98.1936 41.2685C98.3386 41.1646 98.4656 41.0376 98.5695 40.8925L98.7644 39.0338L98.66 39.0895L98.2284 39.3262C98.1038 39.3989 97.983 39.4779 97.8664 39.5628C97.7439 39.6441 97.6317 39.74 97.5322 39.8483C97.4492 39.9507 97.3791 40.063 97.3234 40.1824C97.2586 40.3157 97.2185 40.4595 97.205 40.6071C97.2016 40.6651 97.2016 40.7232 97.205 40.7811C97.1975 40.9387 97.2336 41.0953 97.3095 41.2337C97.3467 41.3069 97.4035 41.3684 97.4735 41.4114C97.5435 41.4544 97.6241 41.4772 97.7063 41.4773V41.4495ZM100.749 43.8582L100.602 43.35C100.804 43.287 100.982 43.163 101.111 42.9949C101.24 42.8201 101.32 42.6131 101.34 42.3962H100.714L100.846 41.1083H102.064L101.925 42.3614C101.908 42.704 101.789 43.0337 101.584 43.3082C101.361 43.565 101.072 43.7553 100.749 43.8582ZM105.496 44.5543L106.401 35.8941H107.564L107.515 36.4162C107.676 36.2285 107.874 36.0764 108.097 35.9697C108.32 35.863 108.563 35.8041 108.81 35.7966C108.98 35.7941 109.148 35.8273 109.304 35.8941C109.436 35.9502 109.555 36.0332 109.652 36.1377C109.747 36.2469 109.823 36.3718 109.875 36.5067C109.934 36.6455 109.979 36.7902 110.007 36.9383C110.034 37.0949 110.051 37.253 110.056 37.4117V38.268L109.889 39.8204C109.703 41.6073 109.075 42.5007 108.003 42.5007C107.794 42.4921 107.59 42.4348 107.407 42.3332C107.225 42.2317 107.069 42.0887 106.951 41.9159L106.68 44.5543H105.496ZM107.849 41.5817C107.965 41.5859 108.079 41.5543 108.177 41.4912C108.268 41.433 108.344 41.3543 108.399 41.2615C108.466 41.1388 108.515 41.0076 108.546 40.8716C108.587 40.7159 108.62 40.5578 108.643 40.3983C108.643 40.2497 108.666 40.0594 108.713 39.8274L108.88 38.268C108.903 37.9756 108.917 37.7134 108.921 37.4813C108.931 37.2851 108.88 37.0905 108.775 36.9244C108.725 36.8547 108.657 36.799 108.579 36.7625C108.502 36.7259 108.416 36.7098 108.33 36.7156C108.009 36.7379 107.704 36.8623 107.459 37.0706L107.014 41.2476C107.246 41.4486 107.542 41.5619 107.849 41.5678V41.5817ZM112.59 42.4659C112.275 42.4768 111.962 42.4198 111.671 42.2988C111.446 42.1989 111.26 42.0276 111.142 41.8115C111.014 41.5575 110.939 41.2806 110.919 40.997C110.912 40.8718 110.912 40.7462 110.919 40.621C110.92 40.3698 110.934 40.1189 110.961 39.8692L111.121 38.3585C111.156 37.9724 111.226 37.5902 111.33 37.2168C111.412 36.9289 111.544 36.6578 111.72 36.4162C111.884 36.1953 112.105 36.0241 112.36 35.9219C112.658 35.8093 112.975 35.7549 113.293 35.7618C113.617 35.747 113.94 35.8115 114.233 35.9498C114.459 36.0667 114.635 36.2623 114.727 36.4997C114.827 36.7865 114.881 37.0873 114.888 37.3908V37.5927C114.884 37.9233 114.861 38.2535 114.818 38.5813L114.755 39.1173H112.186L112.082 40.0293V40.983C112.073 41.0453 112.073 41.1087 112.082 41.171L112.138 41.3241C112.151 41.3741 112.178 41.4197 112.214 41.4564L112.326 41.5469C112.371 41.5789 112.424 41.6003 112.479 41.6096H112.674C112.784 41.6176 112.895 41.5968 112.995 41.5492C113.095 41.5016 113.181 41.4288 113.245 41.3381C113.388 41.087 113.469 40.8054 113.481 40.5166L113.523 40.1128H114.658V40.3774C114.495 41.7697 113.806 42.4659 112.59 42.4659ZM112.27 38.4908H113.697L113.753 37.899C113.762 37.7158 113.762 37.5323 113.753 37.3491V37.2029C113.756 37.0451 113.702 36.8917 113.6 36.7713C113.541 36.718 113.471 36.6775 113.396 36.6524C113.32 36.6272 113.24 36.6179 113.161 36.6251C113.039 36.6131 112.915 36.6361 112.806 36.6916C112.696 36.7471 112.604 36.8327 112.541 36.9383C112.381 37.3158 112.289 37.7189 112.27 38.1288V38.4908ZM115.563 42.3962L116.308 35.8802H117.164L118.194 39.9318L120.074 35.8802H120.937L120.325 42.3962H119.35L119.761 38.442L118.215 41.7697H117.86L116.955 38.456L116.537 42.3962H115.563ZM124.307 42.3197C124.017 42.4362 123.707 42.493 123.395 42.4867C123.091 42.4959 122.79 42.4389 122.511 42.3197C122.287 42.2203 122.102 42.0519 121.981 41.8393C121.857 41.6034 121.779 41.3458 121.752 41.0805C121.744 40.946 121.744 40.8112 121.752 40.6767C121.752 40.479 121.763 40.2814 121.787 40.085L121.981 38.2053C122.017 37.5608 122.232 36.9389 122.601 36.4092C122.787 36.1953 123.021 36.0278 123.283 35.9202C123.545 35.8126 123.829 35.7679 124.112 35.7897C124.416 35.781 124.718 35.8405 124.996 35.9637C125.219 36.0661 125.404 36.2367 125.525 36.451C125.649 36.687 125.727 36.9445 125.755 37.2098C125.766 37.3488 125.766 37.4885 125.755 37.6275C125.753 37.8231 125.739 38.0184 125.713 38.2123L125.518 40.0919C125.482 40.4254 125.412 40.7543 125.309 41.0735C125.223 41.3444 125.091 41.5986 124.919 41.8254C124.761 42.0405 124.55 42.2108 124.307 42.3197ZM123.221 41.5817C123.303 41.6118 123.39 41.6259 123.478 41.6235C123.569 41.6246 123.659 41.6081 123.743 41.5748C123.814 41.5489 123.882 41.5138 123.945 41.4703C124.008 41.4203 124.058 41.3559 124.091 41.2824C124.133 41.1988 124.167 41.1223 124.195 41.0596C124.228 40.967 124.251 40.8714 124.265 40.7742C124.265 40.6489 124.3 40.5514 124.314 40.4748C124.328 40.3983 124.314 40.2938 124.348 40.1476L124.564 38.1218V37.4953C124.573 37.4003 124.573 37.3048 124.564 37.2098C124.551 37.1344 124.532 37.06 124.509 36.9871C124.491 36.9164 124.455 36.8516 124.404 36.7991C124.286 36.6923 124.132 36.6349 123.972 36.639C123.87 36.6386 123.769 36.6575 123.673 36.6947C123.585 36.7285 123.508 36.7864 123.45 36.8617C123.395 36.9339 123.346 37.0108 123.304 37.0915C123.258 37.1913 123.226 37.2966 123.207 37.4048C123.207 37.537 123.158 37.6484 123.144 37.7459C123.13 37.8433 123.144 37.9687 123.102 38.1288L122.886 40.1546V40.7742C122.878 40.8668 122.878 40.96 122.886 41.0526C122.9 41.128 122.919 41.2025 122.942 41.2754C122.96 41.3461 122.996 41.4109 123.047 41.4634C123.097 41.5129 123.156 41.553 123.221 41.5817ZM126.5 42.3962L127.196 35.8802H128.351L128.073 38.623H129.66L129.946 35.8802H131.108L130.412 42.3962H129.249L129.556 39.4863H127.961L127.655 42.3962H126.5ZM132.487 42.3962L133.078 36.7573H131.846L131.937 35.8802H135.584L135.494 36.7573H134.248L133.656 42.3962H132.487ZM135.619 43.8582L135.473 43.35C135.675 43.287 135.853 43.163 135.981 42.9949C136.111 42.8203 136.191 42.6131 136.211 42.3962H135.584L135.752 41.0735H136.97L136.831 42.3266C136.814 42.6692 136.695 42.9989 136.489 43.2734C136.262 43.5484 135.96 43.7515 135.619 43.8582ZM142.107 42.5007C141.873 42.5255 141.636 42.4922 141.417 42.4035C141.199 42.3149 141.005 42.1737 140.854 41.9925C140.649 41.6588 140.552 41.2697 140.576 40.8786C140.567 40.7232 140.567 40.5675 140.576 40.4122H141.571C141.565 40.5374 141.565 40.6629 141.571 40.7881C141.558 40.9886 141.594 41.1894 141.676 41.3729C141.724 41.4699 141.8 41.5502 141.895 41.6035C141.989 41.6569 142.097 41.6808 142.205 41.6722C142.31 41.6748 142.415 41.6534 142.511 41.6096C142.592 41.5723 142.663 41.5177 142.72 41.4495C142.782 41.3703 142.829 41.2807 142.859 41.1849C142.898 41.0785 142.929 40.9691 142.95 40.8577C142.95 40.7463 142.968 40.6117 143.006 40.4539C143.011 40.3751 143.011 40.2961 143.006 40.2172C143.019 40.1125 143.008 40.006 142.975 39.9059C142.941 39.8058 142.885 39.7146 142.811 39.6394C142.494 39.4742 142.135 39.4064 141.78 39.4445L141.871 38.6161C142.239 38.6506 142.608 38.5704 142.929 38.3863C143.04 38.2852 143.129 38.1628 143.191 38.0264C143.253 37.8901 143.287 37.7426 143.291 37.5927C143.294 37.5231 143.294 37.4534 143.291 37.3839C143.299 37.2094 143.253 37.0367 143.159 36.8896C143.101 36.8099 143.024 36.7459 142.935 36.7034C142.847 36.6608 142.749 36.6411 142.65 36.6459C142.541 36.6401 142.431 36.6583 142.329 36.6991C142.226 36.74 142.134 36.8026 142.059 36.8826C141.881 37.1306 141.784 37.427 141.78 37.732H140.778C140.793 37.1758 141.014 36.645 141.397 36.2422C141.786 35.9181 142.284 35.7539 142.79 35.7827C143.048 35.7772 143.304 35.8271 143.542 35.9289C143.739 36.0138 143.91 36.1509 144.036 36.3257C144.151 36.4909 144.232 36.6781 144.273 36.8757C144.302 37.0083 144.316 37.1437 144.314 37.2795C144.32 37.3629 144.32 37.4466 144.314 37.5301C144.295 37.77 144.236 38.0052 144.14 38.2262C144.068 38.399 143.959 38.5535 143.82 38.6787C143.708 38.7763 143.581 38.8561 143.444 38.9154C143.32 38.9689 143.189 39.0018 143.054 39.0129L143.207 39.0547L143.354 39.1034L143.5 39.1661L143.632 39.2496C143.681 39.2804 143.724 39.3206 143.757 39.3679L143.862 39.5211C143.9 39.581 143.928 39.6469 143.945 39.716C143.945 39.7926 143.945 39.8692 143.994 39.9597C144.002 40.0593 144.002 40.1594 143.994 40.259C144.001 40.3819 144.001 40.5051 143.994 40.628C143.969 41.1439 143.768 41.6355 143.423 42.0203C143.247 42.1844 143.04 42.3115 142.814 42.394C142.588 42.4765 142.348 42.5128 142.107 42.5007ZM146.055 42.4659C145.881 42.4678 145.709 42.4268 145.555 42.3467C145.401 42.2666 145.269 42.1497 145.171 42.0064C144.986 41.754 144.889 41.4487 144.892 41.1362C144.889 41.0759 144.889 41.0155 144.892 40.9552C144.913 40.7453 144.962 40.5391 145.038 40.3426C145.1 40.176 145.173 40.0132 145.254 39.8552C145.347 39.6965 145.47 39.557 145.616 39.4445L146.02 39.1243C146.184 39.0108 146.359 38.9129 146.542 38.8319L147.078 38.5813L147.705 38.3307H147.739L147.788 37.8642C147.796 37.7065 147.796 37.5485 147.788 37.3908C147.793 37.2353 147.772 37.0799 147.726 36.9314C147.656 36.7504 147.489 36.6599 147.217 36.6599C146.753 36.6599 146.486 36.9731 146.417 37.5997L146.382 37.9199L145.233 37.8781V37.6415C145.29 37.1086 145.537 36.614 145.929 36.2491C146.339 35.9348 146.848 35.7769 147.363 35.8036C147.604 35.774 147.847 35.805 148.072 35.8938C148.297 35.9826 148.496 36.1263 148.651 36.3118C148.851 36.6426 148.945 37.0261 148.923 37.4117C148.931 37.5648 148.931 37.7181 148.923 37.8712L148.61 40.8716C148.568 41.2647 148.547 41.6598 148.547 42.0551V42.4102H147.489C147.452 42.0389 147.433 41.721 147.433 41.4564C147.312 41.747 147.121 42.003 146.876 42.2013C146.639 42.3779 146.35 42.4709 146.055 42.4659ZM146.619 41.4495C146.796 41.444 146.968 41.3804 147.106 41.2685C147.251 41.1646 147.378 41.0376 147.482 40.8925L147.677 39.0338L147.572 39.0895L147.141 39.3262C147.016 39.3989 146.895 39.4779 146.779 39.5628C146.656 39.644 146.544 39.7399 146.445 39.8483C146.362 39.9508 146.292 40.063 146.236 40.1824C146.171 40.3156 146.131 40.4595 146.117 40.6071C146.114 40.6651 146.114 40.7232 146.117 40.7811C146.11 40.9387 146.146 41.0952 146.222 41.2337C146.26 41.308 146.317 41.3702 146.389 41.4133C146.46 41.4564 146.542 41.4785 146.626 41.4773L146.619 41.4495ZM149.779 42.3962L150.475 35.8802H154.214L153.518 42.3962H152.362L152.947 36.7713H151.554L150.963 42.3962H149.779ZM157.291 42.3962L157.562 39.7996C157.269 39.8415 156.974 39.8648 156.678 39.8692C156.444 39.8736 156.21 39.8478 155.982 39.7926C155.793 39.7454 155.615 39.6601 155.46 39.542C155.297 39.4157 155.18 39.2397 155.126 39.0407C155.08 38.8776 155.059 38.7087 155.063 38.5395C155.058 38.4444 155.058 38.3491 155.063 38.2541L155.314 35.8802H156.476L156.226 38.275V38.4212C156.217 38.5762 156.263 38.7294 156.358 38.8528C156.447 38.9263 156.551 38.9808 156.662 39.0132C156.774 39.0455 156.89 39.0548 157.005 39.0407C157.211 39.039 157.416 39.0204 157.618 38.985L157.938 35.8802H159.101L158.405 42.3962H157.291ZM160.939 42.4659C160.765 42.4678 160.593 42.4268 160.439 42.3467C160.285 42.2666 160.153 42.1497 160.055 42.0064C159.87 41.754 159.773 41.4487 159.776 41.1362C159.772 41.0759 159.772 41.0155 159.776 40.9552C159.797 40.7453 159.846 40.5391 159.922 40.3426C159.984 40.176 160.056 40.0132 160.138 39.8552C160.231 39.6965 160.354 39.557 160.5 39.4445L160.904 39.1243C161.068 39.0108 161.243 38.9129 161.426 38.8319L161.962 38.5813L162.589 38.3307H162.623L162.672 37.8642C162.68 37.7065 162.68 37.5485 162.672 37.3908C162.677 37.2353 162.656 37.0799 162.609 36.9314C162.54 36.7504 162.373 36.6599 162.101 36.6599C161.637 36.6599 161.37 36.9731 161.301 37.5997L161.266 37.9199L160.117 37.8781V37.6415C160.174 37.1086 160.421 36.614 160.813 36.2491C161.223 35.9348 161.732 35.7769 162.247 35.8036C162.487 35.774 162.731 35.805 162.956 35.8938C163.181 35.9826 163.38 36.1263 163.535 36.3118C163.735 36.6426 163.829 37.0261 163.807 37.4117C163.815 37.5648 163.815 37.7181 163.807 37.8712L163.494 40.8716C163.452 41.2647 163.431 41.6598 163.431 42.0551V42.4102H162.373C162.336 42.0389 162.317 41.721 162.317 41.4564C162.196 41.747 162.005 42.003 161.76 42.2013C161.523 42.3779 161.234 42.4709 160.939 42.4659ZM161.503 41.4495C161.68 41.444 161.852 41.3804 161.99 41.2685C162.135 41.1646 162.262 41.0376 162.366 40.8925L162.561 39.0338L162.456 39.0895L162.025 39.3262C161.9 39.3989 161.779 39.4779 161.663 39.5628C161.54 39.644 161.428 39.7399 161.328 39.8483C161.246 39.9508 161.175 40.063 161.12 40.1824C161.055 40.3156 161.015 40.4595 161.001 40.6071C160.998 40.6651 160.998 40.7232 161.001 40.7811C160.994 40.9387 161.03 41.0952 161.106 41.2337C161.143 41.308 161.201 41.3702 161.273 41.4133C161.344 41.4564 161.426 41.4785 161.509 41.4773L161.503 41.4495ZM166.383 42.4659C166.057 42.478 165.732 42.4136 165.436 42.2779C165.207 42.1697 165.022 41.9851 164.914 41.7558C164.803 41.4975 164.74 41.2217 164.726 40.9413V40.628C164.727 40.3764 164.746 40.1252 164.781 39.8761L164.942 38.3655C164.977 37.9919 165.042 37.6218 165.136 37.2586C165.213 36.9738 165.335 36.7034 165.499 36.458C165.652 36.2242 165.873 36.0423 166.132 35.9359C166.438 35.8165 166.765 35.7597 167.093 35.7688C167.384 35.7588 167.674 35.8037 167.949 35.9011C168.154 35.9764 168.33 36.1155 168.45 36.2979C168.567 36.4929 168.639 36.7118 168.659 36.9383C168.668 37.0565 168.668 37.1752 168.659 37.2934C168.67 37.4696 168.67 37.6463 168.659 37.8225L168.617 38.2053H167.566L167.608 37.8225C167.616 37.6764 167.616 37.53 167.608 37.3839C167.616 37.2179 167.59 37.0519 167.531 36.8966C167.483 36.8053 167.407 36.731 167.315 36.6837C167.223 36.6365 167.119 36.6184 167.016 36.632C166.893 36.6195 166.768 36.6423 166.657 36.6978C166.546 36.7532 166.454 36.8391 166.39 36.9453C166.232 37.3234 166.142 37.7264 166.125 38.1357L165.909 40.1685C165.887 40.3697 165.875 40.5718 165.874 40.7742C165.865 40.9562 165.891 41.1383 165.951 41.3102C165.998 41.4129 166.077 41.4975 166.176 41.5515C166.275 41.6055 166.389 41.6258 166.501 41.6096C166.608 41.6129 166.715 41.594 166.814 41.5539C166.896 41.5208 166.969 41.471 167.03 41.4077C167.092 41.334 167.14 41.2488 167.169 41.1571C167.206 41.0528 167.234 40.9457 167.253 40.8368C167.253 40.7301 167.271 40.5978 167.309 40.44L167.364 39.9318H168.415L168.374 40.3635C168.347 40.6657 168.288 40.9643 168.2 41.2545C168.124 41.4917 168.006 41.7133 167.852 41.9089C167.697 42.102 167.492 42.2489 167.26 42.3336C166.978 42.431 166.681 42.4758 166.383 42.4659ZM170.093 42.3962L170.685 36.7573H169.453L169.543 35.8802H173.191L173.101 36.7573H171.854L171.263 42.3962H170.093ZM173.344 42.3962L174.04 35.8802H175.015L174.556 40.3286L176.999 35.8802H177.918L177.222 42.3962H176.254L176.728 37.9199L174.284 42.3962H173.344Z" fill="#6F758A"/>
</g>
<defs>
<clipPath id="clip0_2_419">
<rect width="183" height="44.5404" fill="white"/>
</clipPath>
</defs>
</svg>
